<?xml version="1.0" encoding="UTF-8"?><svg id="Layer_1" xmlns="http://www.w3.org/2000/svg" viewBox="0 0 1220.94 244.74"><defs><style>.cls-1{fill:#fff;}.cls-2{opacity:.5;}</style></defs><g><path class="cls-1" d="m314,43.93h31.2v64.99l55.46-64.99h38.78l-63.26,73.88,76.47,79.94h-40.73l-66.72-69.97v69.97h-31.2V43.93Z"/><path class="cls-1" d="m430.67,102.99h61.96v28.6h-61.96v-28.6Z"/><path class="cls-1" d="m596.97,200.35c-43.98,0-79.51-35.53-79.51-79.51s35.53-79.51,79.51-79.51,79.51,35.53,79.51,79.51-35.53,79.51-79.51,79.51Zm0-30.33c26.87,0,47.88-22.31,47.88-49.18s-21.01-49.18-47.88-49.18-47.88,22.31-47.88,49.18,21.01,49.18,47.88,49.18Z"/><path class="cls-1" d="m698.37,43.93h56.33c25.78,0,45.71,20.15,45.71,44.63,0,11.7-4.77,21.01-12.13,27.51,13.43,6.5,22.75,19.07,22.75,36.4,0,25.56-20.36,45.28-47.66,45.28h-64.99V43.93Zm53.29,63.05c10.83,0,18.2-7.58,18.2-17.11s-7.37-17.33-18.2-17.33h-21.88v34.45h21.88Zm9.53,61.96c11.7,0,19.28-7.58,19.28-17.55s-7.58-17.77-19.28-17.77h-31.41v35.31h31.41Z"/><path class="cls-1" d="m832.98,43.93h31.41v153.82h-31.41V43.93Z"/><path class="cls-1" d="m965.71,200.35c-43.98,0-79.51-35.53-79.51-79.51s35.53-79.51,79.51-79.51,79.51,35.53,79.51,79.51-35.53,79.51-79.51,79.51Zm0-30.33c26.86,0,47.88-22.31,47.88-49.18s-21.02-49.18-47.88-49.18-47.88,22.31-47.88,49.18,21.01,49.18,47.88,49.18Z"/><path class="cls-1" d="m1067.11,43.93h31.41v123.92h65.86v29.9h-97.27V43.93Z"/></g><path class="cls-1" d="m1206.12,73.25c-8.09,0-14.74-6.65-14.74-14.78s6.65-14.78,14.74-14.78,14.82,6.65,14.82,14.78-6.69,14.78-14.82,14.78Zm0-2.86c6.57,0,11.96-5.36,11.96-11.92s-5.4-11.92-11.96-11.92-11.88,5.36-11.88,11.92,5.4,11.92,11.88,11.92Zm-4.75-19.45h5.6c2.82,0,4.59,1.89,4.59,4.39,0,2.01-1.13,3.34-3.18,3.95l5.44,6.68h-3.42l-5.28-6.4h-.88v6.4h-2.86v-15.02Zm5.28,6.16c1.25,0,2.1-.68,2.1-1.77s-.85-1.73-2.1-1.73h-2.42v3.5h2.42Z"/><g class="cls-2"><path class="cls-1" d="m25.96,197.74c22.4,28.61,57.25,47,96.4,47s74.01-18.39,96.4-47H25.96Zm218.77-75.37c0,11.02-1.47,21.7-4.2,31.86H4.2c-2.73-10.16-4.2-20.84-4.2-31.86C0,54.79,54.79,0,122.37,0s122.37,54.79,122.37,122.37Zm-44.37-11.64c-5.65-37.98-38.47-67.22-77.99-67.22s-72.35,29.23-77.99,67.22h155.99Z"/></g></svg>